# xmcd CD database file
#
# Track frame offsets:
#	150
#	20380
#	47710
#	69160
#	84250
#	106852
#	124020
#	143350
#	157550
#	178882
#	196727
#	221970
#	242877
#	261222
#	279407
#	297955
#	326217
#
# Disc length: 4604 seconds
#
# Revision: 5
# Processed by: cddbd v1.5.1PL0 Copyright (c) Steve Scherf et al.
# Submitted via: CDex 1.51
#
DISCID=eb11fa11
DTITLE=Various Artist - The Gothic Compilation Part IX
DYEAR=1900
DGENRE=
TTITLE0=The Northern Territories - Through The Darkest Rain
TTITLE1=HIM - When Love And Death Embrace
TTITLE2=Century - Lost
TTITLE3=Escape With Romeo - Lovesick
TTITLE4=Apoptygma Berzerk - All Tomorrows Parties
TTITLE5=Wolfsheim - Love Is Strange
TTITLE6=Das Holz - Melinda
TTITLE7=Corvus Corax - Filii Neidhardi
TTITLE8=Cobalt 60 - Darwin Was Right
TTITLE9=Inside - Penetrate U
TTITLE10=The Gallery - A Wave Of Mature Grain
TTITLE11=Near Dark - Tickle The Ivories
TTITLE12=Vermilion Fields - I Dread The Days
TTITLE13=Star Industry - Egypt
TTITLE14=The Hall Of Souls - Dancing With Tears In My Eyes
TTITLE15=Melotron - Glühendes Spiel
TTITLE16=Reclaim - Hide Me In The Dark
EXTD=entered: mail@martin-sander.de
EXTT0=
EXTT1=
EXTT2=
EXTT3=
EXTT4=
EXTT5=
EXTT6=
EXTT7=
EXTT8=
EXTT9=
EXTT10=
EXTT11=
EXTT12=
EXTT13=
EXTT14=
EXTT15=
EXTT16=
PLAYORDER=
